{"title":"Step Up 3 (2010)[DVDRip][Xvid-torentup][Lektor PL]","uid":12494072,"size":732807880,"categoryP":"video","categoryS":"movies","magnet":"?xt=urn:btih:1406a79a199d6d8807ab2597e24b18406bc67163&amp;dn=Step+Up+3+%282010%29%5BDVDRip%5D%5BXvid-torentup%5D%5BLektor+PL%5D&amp;tr=udp%3A%2F%2Ftracker.leechers-paradise.org%3A6969&amp;tr=udp%3A%2F%2Fzer0day.ch%3A1337&amp;tr=udp%3A%2F%2Fopen.demonii.com%3A1337&amp;tr=udp%3A%2F%2Ftracker.coppersurfer.tk%3A6969&amp;tr=udp%3A%2F%2Fexodus.desync.com%3A6969","seeders":1,"leechers":0,"uploader":"torentup","files":6,"time":1443225989,"description":"=====================\r\nINFO\r\n================\r\n\r\nProdukcja: USA\r\nGatunek: Melodramat, Muzyczny\r\nReżyseria: Jon Chu\r\nScenariusz: Amy Andelson, Emily Meyer\r\nPremiera: 6 sierpnia 2010 Polska, 28 maja 2010 Świat\r\nCzas trwania: 99 min\r\n\r\n\r\n=====================\r\nOPIS\r\n====================\r\n\r\nLuke (Rick Malambri) jest tancerzem ulicznym. Jego dom to stary magazyn w Nowym Jorku. Miejsce to jest rajem dla młodych ludzi z całego świata, którzy kochają taniec i muzykę. Jedyną rodziną Luke'a są członkowie grupy House of Pirates, z którymi codziennie ćwiczy, aby pokonać swoich odwiecznych rywali z konkurującej ekipy House of Samurai. Nieubłaganie zbliża się wielki dzień międzynarodowych mistrzostw w tańcu. Luke wyrusza w miasto na poszukiwanie nowych, utalentowanych tancerzy, którzy pomogą mu wzbogacić skład jego grupy i tym samym zwiększą szansę na wygranie głównej nagrody w turnieju. Chłopak poznaje Natalie (Sharni Vinson) i Moose'a (znany ze &quot;Step Up &quot; rewelacyjny Adam Sevani).\r\n\r\n=====================\r\nOBSADA\r\n====================\r\n\r\nHarry Shum Jr\r\nAdam G. Sevani\r\nSharni Vinson\r\nRick Malambri\r\nKendra Andrews\r\nMonique Dupree\r\nChristopher\r\n\r\n=====================\r\nDANE TECHNICZNE\r\n=====================\r\n\r\n[img]http://img.liczniki.org/20150925/Step_Up_3__2010__DVDRip__Xvid_torentup__Lektor_PL_-1443208607.jpg[/img]\r\n\r\n\r\nFormat                         : AVI\r\nFormat/Info                    : Audio Video Interleave\r\nFile size                      : 698 MiB\r\nDuration                       : 1h 42mn\r\nOverall bit rate mode          : Variable\r\nOverall bit rate               : 953 Kbps\r\nWriting application            : VirtualDubMod 1.5.10.2 (build 2540/release)\r\nWriting library                : VirtualDubMod build 2540/release\r\n\r\nVideo\r\nID                             : 0\r\nFormat                         : MPEG-4 Visual\r\nFormat profile                 : Advanced   \r\nFormat settings, BVOP          : Yes\r\nFormat settings, QPel          : No\r\nFormat settings, GMC           : No warppoints\r\nFormat settings, Matrix        : Default (H.263)\r\nCodec ID                       : XVID\r\nCodec ID/Hint                  : XviD\r\nDuration                       : 1h 42mn\r\nBit rate                       : 813 Kbps\r\nWidth                          : 640 pixels\r\nHeight                         : 352 pixels\r\nDisplay aspect ratio           : 16:9\r\nFrame rate                     : 25.000 fps\r\nColor space                    : YUV\r\nChroma subsampling             : 4:2:0\r\nBit depth                      : 8 bits\r\nScan type                      : Progressive\r\nCompression mode               : Lossy\r\nBits/(Pixel*Frame)             : 0.144\r\nStream size                    : 596 MiB (85%)\r\nWriting library                : XviD 1.2.1 (UTC 2008-12-04)\r\n\r\nAudio\r\nID                             : 1\r\nFormat                         : MPEG Audio\r\nFormat version                 : Version 1\r\nFormat profile                 : Layer 3\r\nMode                           : Joint stereo\r\nMode extension                 : MS Stereo\r\nCodec ID                       : 55\r\nCodec ID/Hint                  : MP3\r\nDuration                       : 1h 42mn\r\nBit rate mode                  : Variable\r\nBit rate                       : 128 Kbps\r\nChannel(s)                     : 2 channels\r\nSampling rate                  : 48.0 KHz\r\nCompression mode               : Lossy\r\nStream size                    : 93.0 MiB (13%)\r\nAlignment                      : Aligned on interleaves\r\nInterleave, duration           : 24 ms (0.60 video frame)\r\nInterleave, preload duration   : 172 ms\r\nWriting library                : LAME3.90.\r\nEncoding settings              : -m j -V 4 -q 2 -lowpass 17.6 --abr 128","torrent":{"xt":"urn:btih:1406a79a199d6d8807ab2597e24b18406bc67163","amp;dn":"Step+Up+3+%282010%29%5BDVDRip%5D%5BXvid-torentup%5D%5BLektor+PL%5D","amp;tr":["udp%3A%2F%2Ftracker.leechers-paradise.org%3A6969","udp%3A%2F%2Fzer0day.ch%3A1337","udp%3A%2F%2Fopen.demonii.com%3A1337","udp%3A%2F%2Ftracker.coppersurfer.tk%3A6969","udp%3A%2F%2Fexodus.desync.com%3A6969"],"infoHash":"1406a79a199d6d8807ab2597e24b18406bc67163","infoHashBuffer":{"type":"Buffer","data":[20,6,167,154,25,157,109,136,7,171,37,151,226,75,24,64,107,198,113,99]},"announce":[],"urlList":[]}}